<mxfile host="app.diagrams.net" modified="2023-06-01T22:36:48.165Z" agent="Mozilla/5.0 (Windows NT 10.0; Win64; x64) AppleWebKit/537.36 (KHTML, like Gecko) Chrome/112.0.0.0 Safari/537.36 OPR/98.0.0.0" etag="-ZNPnvGty9rpNg-ut0Yq" version="21.3.6" type="github">
  <diagram name="Page-1" id="lRozzrzec7q26bja8JYh">
    <mxGraphModel dx="754" dy="432" grid="1" gridSize="10" guides="1" tooltips="1" connect="1" arrows="1" fold="1" page="1" pageScale="1" pageWidth="827" pageHeight="1169" math="0" shadow="0">
      <root>
        <mxCell id="0" />
        <mxCell id="1" parent="0" />
        <mxCell id="nc1XppjEyC4-wOkGGgJu-1" value="Actor" style="shape=umlActor;verticalLabelPosition=bottom;verticalAlign=top;html=1;outlineConnect=0;" vertex="1" parent="1">
          <mxGeometry x="50" y="80" width="30" height="60" as="geometry" />
        </mxCell>
        <mxCell id="nc1XppjEyC4-wOkGGgJu-2" value="Actor" style="shape=umlActor;verticalLabelPosition=bottom;verticalAlign=top;html=1;outlineConnect=0;" vertex="1" parent="1">
          <mxGeometry x="690" y="80" width="30" height="60" as="geometry" />
        </mxCell>
        <mxCell id="nc1XppjEyC4-wOkGGgJu-3" value="S&#39;inscrire" style="ellipse;whiteSpace=wrap;html=1;" vertex="1" parent="1">
          <mxGeometry x="330" y="60" width="120" height="80" as="geometry" />
        </mxCell>
        <mxCell id="nc1XppjEyC4-wOkGGgJu-4" value="se connecter" style="ellipse;whiteSpace=wrap;html=1;" vertex="1" parent="1">
          <mxGeometry x="330" y="160" width="120" height="80" as="geometry" />
        </mxCell>
      </root>
    </mxGraphModel>
  </diagram>
</mxfile>
